<svg width="92" height="84" viewBox="0 0 92 84" fill="none" xmlns="http://www.w3.org/2000/svg">
<path d="M91.5167 49.2625C91.5006 49.0163 91.4616 48.7722 91.4 48.5333L81.7958 22.9625C83.5434 21.8323 84.9807 20.2831 85.9769 18.4558C86.9731 16.6285 87.4967 14.5812 87.5 12.5C87.5 11.3949 87.061 10.3351 86.2796 9.55372C85.4982 8.77232 84.4384 8.33333 83.3333 8.33333C82.2283 8.33333 81.1685 8.77232 80.387 9.55372C79.6056 10.3351 79.1667 11.3949 79.1667 12.5C79.1683 13.4296 78.859 14.333 78.288 15.0666C77.7171 15.8002 76.9172 16.3217 76.0156 16.5483C75.1141 16.7749 74.1626 16.6935 73.3127 16.317C72.4627 15.9406 71.7631 15.2907 71.325 14.4708C70.2562 12.5727 68.693 10.9996 66.8016 9.91895C64.9102 8.83825 62.7613 8.2903 60.5833 8.33333H50V4.16667C50 3.0616 49.561 2.00179 48.7796 1.22039C47.9982 0.438987 46.9384 0 45.8333 0C44.7283 0 43.6685 0.438987 42.8871 1.22039C42.1057 2.00179 41.6667 3.0616 41.6667 4.16667V8.33333H31.0833C28.9054 8.2903 26.7565 8.83825 24.8651 9.91895C22.9737 10.9996 21.4105 12.5727 20.3417 14.4708C19.9036 15.2907 19.2039 15.9406 18.354 16.317C17.504 16.6935 16.5526 16.7749 15.651 16.5483C14.7495 16.3217 13.9496 15.8002 13.3786 15.0666C12.8076 14.333 12.4984 13.4296 12.5 12.5C12.5 11.3949 12.061 10.3351 11.2796 9.55372C10.4982 8.77232 9.4384 8.33333 8.33333 8.33333C7.22826 8.33333 6.16846 8.77232 5.38705 9.55372C4.60565 10.3351 4.16667 11.3949 4.16667 12.5C4.16995 14.5812 4.69352 16.6285 5.68975 18.4558C6.68598 20.2831 8.12326 21.8323 9.87083 22.9625L0.266667 48.5333C0.205094 48.7722 0.166035 49.0163 0.15 49.2625C0.0766657 49.503 0.0264382 49.75 0 50C0 50.0417 0.0125001 50.075 0.0125001 50.1125C0.0125001 50.1667 0.0249999 50.2167 0.0291665 50.275C0.126484 54.6231 1.9221 58.7603 5.03163 61.801C8.14116 64.8417 12.3175 66.5443 16.6667 66.5443C21.0158 66.5443 25.1922 64.8417 28.3017 61.801C31.4112 58.7603 33.2068 54.6231 33.3042 50.275C33.3083 50.2167 33.3208 50.1667 33.3208 50.1125C33.3208 50.0708 33.3333 50.0375 33.3333 50C33.3069 49.75 33.2567 49.503 33.1833 49.2625C33.1673 49.0163 33.1282 48.7722 33.0667 48.5333L23.4542 22.9333C25.2198 21.8068 26.6729 20.2534 27.6792 18.4167C28.0426 17.8514 28.5486 17.3919 29.1463 17.0847C29.744 16.7774 30.4121 16.6332 31.0833 16.6667H41.6667V75H29.1667C28.0616 75 27.0018 75.439 26.2204 76.2204C25.439 77.0018 25 78.0616 25 79.1667C25 80.2717 25.439 81.3315 26.2204 82.1129C27.0018 82.8943 28.0616 83.3333 29.1667 83.3333H62.5C63.6051 83.3333 64.6649 82.8943 65.4463 82.1129C66.2277 81.3315 66.6667 80.2717 66.6667 79.1667C66.6667 78.0616 66.2277 77.0018 65.4463 76.2204C64.6649 75.439 63.6051 75 62.5 75H50V16.6667H60.5833C61.2545 16.6332 61.9227 16.7774 62.5204 17.0847C63.118 17.3919 63.6241 17.8514 63.9875 18.4167C64.9938 20.2534 66.4469 21.8068 68.2125 22.9333L58.6 48.5333C58.5384 48.7722 58.4994 49.0163 58.4833 49.2625C58.41 49.503 58.3598 49.75 58.3333 50C58.3333 50.0417 58.3458 50.075 58.3458 50.1125C58.3458 50.1667 58.3583 50.2167 58.3625 50.275C58.4598 54.6231 60.2554 58.7603 63.365 61.801C66.4745 64.8417 70.6508 66.5443 75 66.5443C79.3492 66.5443 83.5255 64.8417 86.635 61.801C89.7446 58.7603 91.5402 54.6231 91.6375 50.275C91.6417 50.2167 91.6542 50.1667 91.6542 50.1125C91.6542 50.0708 91.6667 50.0375 91.6667 50C91.6402 49.75 91.59 49.503 91.5167 49.2625ZM16.6667 28.5667L23.15 45.8333H10.1833L16.6667 28.5667ZM23.8458 54.1667C23.1104 55.4216 22.0627 56.4648 20.8047 57.195C19.5467 57.9251 18.1211 58.3173 16.6667 58.3333C15.2046 58.3326 13.7685 57.9471 12.5025 57.2158C11.2365 56.4844 10.1852 55.4328 9.45417 54.1667H23.8458ZM75 28.5667L81.4833 45.8333H68.5167L75 28.5667ZM75 58.3333C73.5379 58.3326 72.1018 57.9471 70.8358 57.2158C69.5698 56.4844 68.5185 55.4328 67.7875 54.1667H82.1792C81.4437 55.4216 80.396 56.4648 79.138 57.195C77.88 57.9251 76.4545 58.3173 75 58.3333Z" fill="#031C6E"/>
</svg>
