<svg width="100" height="88" viewBox="0 0 100 88" fill="none" xmlns="http://www.w3.org/2000/svg">
<path d="M81.25 3.125C81.25 1.39844 79.8516 0 78.125 0H65.625C63.8984 0 62.5 1.39844 62.5 3.125V12.5H81.25V3.125ZM12.4824 24.998C11.9922 43.3281 0.675781 47.3086 0 72.6562V81.25C0 84.7012 2.79883 87.5 6.25 87.5H25C28.4512 87.5 31.25 84.7012 31.25 81.25V50H37.5V18.75H18.7187C15.2754 18.75 12.5762 21.5566 12.4824 24.998ZM87.5176 24.998C87.4238 21.5566 84.7246 18.75 81.2813 18.75H62.5V50H68.75V81.25C68.75 84.7012 71.5488 87.5 75 87.5H93.75C97.2012 87.5 100 84.7012 100 81.25V72.6562C99.3242 47.3086 88.0078 43.3281 87.5176 24.998ZM34.375 0H21.875C20.1484 0 18.75 1.39844 18.75 3.125V12.5H37.5V3.125C37.5 1.39844 36.1016 0 34.375 0ZM43.75 50H56.25V18.75H43.75V50Z" fill="#031C6E"/>
</svg>
