<svg width="32" height="32" viewBox="0 0 32 32" fill="none" xmlns="http://www.w3.org/2000/svg">
<path fill-rule="evenodd" clip-rule="evenodd" d="M1.33333 0.5C0.596954 0.5 0 1.09695 0 1.83333C0 2.56971 0.596954 3.16667 1.33333 3.16667H5.57375L6.6826 8.70677C6.68851 8.74471 6.69602 8.78212 6.70505 8.81894L8.93221 19.9464C9.11529 20.8668 9.61633 21.6946 10.3473 22.283C11.0749 22.8688 11.9845 23.1813 12.9182 23.1667H25.8551C26.7888 23.1813 27.6984 22.8688 28.426 22.283C29.1573 21.6943 29.6582 20.8672 29.8411 19.9464L29.8431 19.9364L31.9764 8.74977C32.0508 8.35944 31.9473 7.95624 31.694 7.65007C31.4407 7.3439 31.064 7.16667 30.6667 7.16667H9.09391L7.97407 1.57166C7.84935 0.948514 7.30217 0.5 6.66667 0.5H1.33333ZM9.62764 9.83333H29.055L27.2247 19.4312C27.163 19.7364 26.9965 20.0105 26.7539 20.2058C26.5101 20.402 26.2051 20.5062 25.8922 20.5002L25.8667 20.5H12.9067L12.8811 20.5002C12.5683 20.5062 12.2632 20.402 12.0195 20.2058C11.7757 20.0095 11.6087 19.7338 11.5478 19.4269L9.62764 9.83333Z" fill="white"/>
<path d="M9.33333 28.5C9.33333 27.0272 10.5272 25.8333 12 25.8333C13.4728 25.8333 14.6667 27.0272 14.6667 28.5C14.6667 29.9728 13.4728 31.1667 12 31.1667C10.5272 31.1667 9.33333 29.9728 9.33333 28.5Z" fill="white"/>
<path d="M24 28.5C24 27.0272 25.1939 25.8333 26.6667 25.8333C28.1394 25.8333 29.3333 27.0272 29.3333 28.5C29.3333 29.9728 28.1394 31.1667 26.6667 31.1667C25.1939 31.1667 24 29.9728 24 28.5Z" fill="white"/>
</svg>
