<svg width="76" height="76" viewBox="0 0 76 76" fill="none" xmlns="http://www.w3.org/2000/svg">
<rect width="75.29" height="75.29" rx="37.645" fill="#F6F9FB"/>
<rect width="75.29" height="75.29" rx="37.645" fill="#F0F5F8"/>
<rect width="75.29" height="75.29" rx="37.645" fill="white"/>
<path fill-rule="evenodd" clip-rule="evenodd" d="M23.5416 27.9781C22.9291 27.3655 21.936 27.3655 21.3234 27.9781L11.6566 37.6449C4.48004 44.8213 4.48004 56.4568 11.6566 63.6335C18.8331 70.8099 30.4685 70.8099 37.645 63.6335L47.3119 53.9666C47.9243 53.3539 47.9243 52.361 47.3119 51.7483L23.5416 27.9781ZM21.0408 47.7059C22.2659 46.4809 22.2659 44.4945 21.0408 43.2694C19.8156 42.0444 17.8294 42.0444 16.6042 43.2694C14.6814 45.1921 13.5325 47.6052 13.5325 50.2165C13.5325 52.8275 14.6814 55.2405 16.6042 57.1633C17.8294 58.3886 19.8156 58.3886 21.0408 57.1633C22.2659 55.9382 22.2659 53.9518 21.0408 52.7268C20.093 51.7791 19.8066 50.8985 19.8066 50.2165C19.8066 49.5342 20.093 48.6536 21.0408 47.7059Z" fill="#001859"/>
<path fill-rule="evenodd" clip-rule="evenodd" d="M23.5416 27.9781C22.9291 27.3655 21.936 27.3655 21.3234 27.9781L11.6566 37.6449C4.48004 44.8213 4.48004 56.4568 11.6566 63.6335C18.8331 70.8099 30.4685 70.8099 37.645 63.6335L47.3119 53.9666C47.9243 53.3539 47.9243 52.361 47.3119 51.7483L23.5416 27.9781ZM21.0408 47.7059C22.2659 46.4809 22.2659 44.4945 21.0408 43.2694C19.8156 42.0444 17.8294 42.0444 16.6042 43.2694C14.6814 45.1921 13.5325 47.6052 13.5325 50.2165C13.5325 52.8275 14.6814 55.2405 16.6042 57.1633C17.8294 58.3886 19.8156 58.3886 21.0408 57.1633C22.2659 55.9382 22.2659 53.9518 21.0408 52.7268C20.093 51.7791 19.8066 50.8985 19.8066 50.2165C19.8066 49.5342 20.093 48.6536 21.0408 47.7059Z" fill="#99B1D2"/>
<path fill-rule="evenodd" clip-rule="evenodd" d="M23.5416 27.9781C22.9291 27.3655 21.936 27.3655 21.3234 27.9781L11.6566 37.6449C4.48004 44.8213 4.48004 56.4568 11.6566 63.6335C18.8331 70.8099 30.4685 70.8099 37.645 63.6335L47.3119 53.9666C47.9243 53.3539 47.9243 52.361 47.3119 51.7483L23.5416 27.9781ZM21.0408 47.7059C22.2659 46.4809 22.2659 44.4945 21.0408 43.2694C19.8156 42.0444 17.8294 42.0444 16.6042 43.2694C14.6814 45.1921 13.5325 47.6052 13.5325 50.2165C13.5325 52.8275 14.6814 55.2405 16.6042 57.1633C17.8294 58.3886 19.8156 58.3886 21.0408 57.1633C22.2659 55.9382 22.2659 53.9518 21.0408 52.7268C20.093 51.7791 19.8066 50.8985 19.8066 50.2165C19.8066 49.5342 20.093 48.6536 21.0408 47.7059Z" fill="#000B3F"/>
<path fill-rule="evenodd" clip-rule="evenodd" d="M23.5416 27.9781C22.9291 27.3655 21.936 27.3655 21.3234 27.9781L11.6566 37.6449C4.48004 44.8213 4.48004 56.4568 11.6566 63.6335C18.8331 70.8099 30.4685 70.8099 37.645 63.6335L47.3119 53.9666C47.9243 53.3539 47.9243 52.361 47.3119 51.7483L23.5416 27.9781ZM21.0408 47.7059C22.2659 46.4809 22.2659 44.4945 21.0408 43.2694C19.8156 42.0444 17.8294 42.0444 16.6042 43.2694C14.6814 45.1921 13.5325 47.6052 13.5325 50.2165C13.5325 52.8275 14.6814 55.2405 16.6042 57.1633C17.8294 58.3886 19.8156 58.3886 21.0408 57.1633C22.2659 55.9382 22.2659 53.9518 21.0408 52.7268C20.093 51.7791 19.8066 50.8985 19.8066 50.2165C19.8066 49.5342 20.093 48.6536 21.0408 47.7059Z" fill="#011145"/>
<path fill-rule="evenodd" clip-rule="evenodd" d="M23.5416 27.9781C22.9291 27.3655 21.936 27.3655 21.3234 27.9781L11.6566 37.6449C4.48004 44.8213 4.48004 56.4568 11.6566 63.6335C18.8331 70.8099 30.4685 70.8099 37.645 63.6335L47.3119 53.9666C47.9243 53.3539 47.9243 52.361 47.3119 51.7483L23.5416 27.9781ZM21.0408 47.7059C22.2659 46.4809 22.2659 44.4945 21.0408 43.2694C19.8156 42.0444 17.8294 42.0444 16.6042 43.2694C14.6814 45.1921 13.5325 47.6052 13.5325 50.2165C13.5325 52.8275 14.6814 55.2405 16.6042 57.1633C17.8294 58.3886 19.8156 58.3886 21.0408 57.1633C22.2659 55.9382 22.2659 53.9518 21.0408 52.7268C20.093 51.7791 19.8066 50.8985 19.8066 50.2165C19.8066 49.5342 20.093 48.6536 21.0408 47.7059Z" fill="#031C6E"/>
<path d="M51.7484 47.3119C52.3611 47.9243 53.3539 47.9243 53.9666 47.3119L63.6335 37.645C70.8099 30.4685 70.8099 18.8331 63.6335 11.6566C56.4568 4.48004 44.8214 4.48004 37.645 11.6566L27.9781 21.3234C27.3656 21.936 27.3656 22.9291 27.9781 23.5417L51.7484 47.3119Z" fill="#001859"/>
<path d="M51.7484 47.3119C52.3611 47.9243 53.3539 47.9243 53.9666 47.3119L63.6335 37.645C70.8099 30.4685 70.8099 18.8331 63.6335 11.6566C56.4568 4.48004 44.8214 4.48004 37.645 11.6566L27.9781 21.3234C27.3656 21.936 27.3656 22.9291 27.9781 23.5417L51.7484 47.3119Z" fill="#99B1D2"/>
<path d="M51.7484 47.3119C52.3611 47.9243 53.3539 47.9243 53.9666 47.3119L63.6335 37.645C70.8099 30.4685 70.8099 18.8331 63.6335 11.6566C56.4568 4.48004 44.8214 4.48004 37.645 11.6566L27.9781 21.3234C27.3656 21.936 27.3656 22.9291 27.9781 23.5417L51.7484 47.3119Z" fill="#000B3F"/>
<path d="M51.7484 47.3119C52.3611 47.9243 53.3539 47.9243 53.9666 47.3119L63.6335 37.645C70.8099 30.4685 70.8099 18.8331 63.6335 11.6566C56.4568 4.48004 44.8214 4.48004 37.645 11.6566L27.9781 21.3234C27.3656 21.936 27.3656 22.9291 27.9781 23.5417L51.7484 47.3119Z" fill="#011145"/>
<path d="M51.7484 47.3119C52.3611 47.9243 53.3539 47.9243 53.9666 47.3119L63.6335 37.645C70.8099 30.4685 70.8099 18.8331 63.6335 11.6566C56.4568 4.48004 44.8214 4.48004 37.645 11.6566L27.9781 21.3234C27.3656 21.936 27.3656 22.9291 27.9781 23.5417L51.7484 47.3119Z" fill="#031C6E"/>
</svg>
