<svg width="91" height="91" viewBox="0 0 91 91" fill="none" xmlns="http://www.w3.org/2000/svg">
<path d="M88.3413 42.9163L82.0913 36.6663C80.9328 35.5089 79.4399 34.7447 77.8235 34.4819C76.2071 34.219 74.549 34.4707 73.0835 35.2015L55.4272 17.5452C56.1584 16.0801 56.4108 14.4222 56.1486 12.8058C55.8865 11.1895 55.1231 9.69634 53.9663 8.53739L47.7163 2.28739C46.2512 0.822776 44.2644 0 42.1928 0C40.1212 0 38.1345 0.822776 36.6694 2.28739L11.6694 27.2874C10.2048 28.7525 9.382 30.7392 9.382 32.8108C9.382 34.8824 10.2048 36.8692 11.6694 38.3343L17.9194 44.5843C19.0743 45.7392 20.5621 46.5032 22.1736 46.7687C23.7851 47.0343 25.4394 46.7881 26.9038 46.0647L3.66158 69.2913C1.31711 71.6358 -2.4703e-08 74.8156 0 78.1311C2.4703e-08 81.4467 1.31711 84.6265 3.66158 86.971C6.00606 89.3155 9.18584 90.6326 12.5014 90.6326C15.817 90.6326 18.9968 89.3155 21.3413 86.971L44.5366 63.7561C43.8196 65.2186 43.5777 66.8685 43.8445 68.4751C44.1114 70.0818 44.8737 71.5649 46.0249 72.7171L52.2749 78.9671C53.0004 79.6929 53.8617 80.2686 54.8098 80.6614C55.7579 81.0542 56.774 81.2564 57.8003 81.2564C58.8265 81.2564 59.8426 81.0542 60.7907 80.6614C61.7388 80.2686 62.6002 79.6929 63.3256 78.9671L88.3256 53.9671C89.0514 53.2416 89.6272 52.3802 90.02 51.4321C90.4128 50.4841 90.615 49.4679 90.615 48.4417C90.615 47.4155 90.4128 46.3993 90.02 45.4512C89.6272 44.5032 89.0514 43.6418 88.3256 42.9163H88.3413ZM23.4428 36.8538L19.396 32.8147L42.1928 10.0218L46.2319 14.0647L23.4428 36.8538ZM14.7085 80.3421C14.1221 80.9279 13.327 81.2569 12.4981 81.2565C11.6692 81.2561 10.8744 80.9265 10.2885 80.3401C9.70268 79.7537 9.37375 78.9587 9.37412 78.1298C9.37448 77.3009 9.70411 76.5061 10.2905 75.9202L33.5405 52.6702L37.9585 57.0921L14.7085 80.3421ZM50.9194 56.7913L33.8413 39.7132L49.0756 24.4788L66.1538 41.5569L50.9194 56.7913ZM57.8139 71.2444L53.7749 67.1897L76.5678 44.4007L80.6069 48.4397L57.8139 71.2444Z" fill="#031C6E"/>
</svg>
