<svg width="54" height="64" viewBox="0 0 54 64" fill="none" xmlns="http://www.w3.org/2000/svg">
<path d="M14.5769 1.35534C15.597 1.90125 16.2338 2.96429 16.2338 4.12121V8.82684C16.2338 10.5594 14.8292 11.9639 13.0967 11.9639C11.7282 11.9639 10.5643 11.0876 10.1356 9.86556L9.61639 10.2117C7.87092 11.3753 6.82251 13.3344 6.82251 15.4321V26.0808C6.82251 31.2786 11.0361 35.492 16.2338 35.492H28.7821C33.9799 35.492 38.1933 31.2786 38.1933 26.0808V15.4321C38.1933 13.3344 37.1449 11.3753 35.3995 10.2117L34.8803 9.86556C34.4514 11.0876 33.2876 11.9639 31.9192 11.9639C30.1866 11.9639 28.7821 10.5594 28.7821 8.82684V4.12121C28.7821 2.96429 29.4189 1.90125 30.4388 1.35534C31.459 0.809423 32.6965 0.869247 33.6593 1.511L38.8797 4.99128C42.3707 7.31859 44.4675 11.2366 44.4675 15.4321V26.0808C44.4675 34.7435 37.4448 41.7662 28.7821 41.7662H25.645V57.4516H31.9192V52.3181C31.9192 48.8532 34.7281 46.0439 38.1933 46.0439H39.0485C40.3466 43.5048 42.9884 41.7662 46.036 41.7662C50.3674 41.7662 53.8788 45.2775 53.8788 49.6089C53.8788 53.9403 50.3674 57.4516 46.036 57.4516C42.6568 57.4516 39.7769 55.3146 38.6739 52.3181H38.1933V57.4516C38.1933 60.9168 35.3844 63.7258 31.9192 63.7258H25.645C22.1798 63.7258 19.3708 60.9168 19.3708 57.4516V41.7662H16.2338C7.57095 41.7662 0.54834 34.7435 0.54834 26.0808V15.4321C0.54834 11.2366 2.64517 7.31856 6.13611 4.99128L11.3565 1.511C12.3192 0.869247 13.5569 0.809423 14.5769 1.35534Z" fill="#001859"/>
<path d="M14.5769 1.35534C15.597 1.90125 16.2338 2.96429 16.2338 4.12121V8.82684C16.2338 10.5594 14.8292 11.9639 13.0967 11.9639C11.7282 11.9639 10.5643 11.0876 10.1356 9.86556L9.61639 10.2117C7.87092 11.3753 6.82251 13.3344 6.82251 15.4321V26.0808C6.82251 31.2786 11.0361 35.492 16.2338 35.492H28.7821C33.9799 35.492 38.1933 31.2786 38.1933 26.0808V15.4321C38.1933 13.3344 37.1449 11.3753 35.3995 10.2117L34.8803 9.86556C34.4514 11.0876 33.2876 11.9639 31.9192 11.9639C30.1866 11.9639 28.7821 10.5594 28.7821 8.82684V4.12121C28.7821 2.96429 29.4189 1.90125 30.4388 1.35534C31.459 0.809423 32.6965 0.869247 33.6593 1.511L38.8797 4.99128C42.3707 7.31859 44.4675 11.2366 44.4675 15.4321V26.0808C44.4675 34.7435 37.4448 41.7662 28.7821 41.7662H25.645V57.4516H31.9192V52.3181C31.9192 48.8532 34.7281 46.0439 38.1933 46.0439H39.0485C40.3466 43.5048 42.9884 41.7662 46.036 41.7662C50.3674 41.7662 53.8788 45.2775 53.8788 49.6089C53.8788 53.9403 50.3674 57.4516 46.036 57.4516C42.6568 57.4516 39.7769 55.3146 38.6739 52.3181H38.1933V57.4516C38.1933 60.9168 35.3844 63.7258 31.9192 63.7258H25.645C22.1798 63.7258 19.3708 60.9168 19.3708 57.4516V41.7662H16.2338C7.57095 41.7662 0.54834 34.7435 0.54834 26.0808V15.4321C0.54834 11.2366 2.64517 7.31856 6.13611 4.99128L11.3565 1.511C12.3192 0.869247 13.5569 0.809423 14.5769 1.35534Z" fill="#99B1D2"/>
<path d="M14.5769 1.35534C15.597 1.90125 16.2338 2.96429 16.2338 4.12121V8.82684C16.2338 10.5594 14.8292 11.9639 13.0967 11.9639C11.7282 11.9639 10.5643 11.0876 10.1356 9.86556L9.61639 10.2117C7.87092 11.3753 6.82251 13.3344 6.82251 15.4321V26.0808C6.82251 31.2786 11.0361 35.492 16.2338 35.492H28.7821C33.9799 35.492 38.1933 31.2786 38.1933 26.0808V15.4321C38.1933 13.3344 37.1449 11.3753 35.3995 10.2117L34.8803 9.86556C34.4514 11.0876 33.2876 11.9639 31.9192 11.9639C30.1866 11.9639 28.7821 10.5594 28.7821 8.82684V4.12121C28.7821 2.96429 29.4189 1.90125 30.4388 1.35534C31.459 0.809423 32.6965 0.869247 33.6593 1.511L38.8797 4.99128C42.3707 7.31859 44.4675 11.2366 44.4675 15.4321V26.0808C44.4675 34.7435 37.4448 41.7662 28.7821 41.7662H25.645V57.4516H31.9192V52.3181C31.9192 48.8532 34.7281 46.0439 38.1933 46.0439H39.0485C40.3466 43.5048 42.9884 41.7662 46.036 41.7662C50.3674 41.7662 53.8788 45.2775 53.8788 49.6089C53.8788 53.9403 50.3674 57.4516 46.036 57.4516C42.6568 57.4516 39.7769 55.3146 38.6739 52.3181H38.1933V57.4516C38.1933 60.9168 35.3844 63.7258 31.9192 63.7258H25.645C22.1798 63.7258 19.3708 60.9168 19.3708 57.4516V41.7662H16.2338C7.57095 41.7662 0.54834 34.7435 0.54834 26.0808V15.4321C0.54834 11.2366 2.64517 7.31856 6.13611 4.99128L11.3565 1.511C12.3192 0.869247 13.5569 0.809423 14.5769 1.35534Z" fill="#000B3F"/>
<path d="M14.5769 1.35534C15.597 1.90125 16.2338 2.96429 16.2338 4.12121V8.82684C16.2338 10.5594 14.8292 11.9639 13.0967 11.9639C11.7282 11.9639 10.5643 11.0876 10.1356 9.86556L9.61639 10.2117C7.87092 11.3753 6.82251 13.3344 6.82251 15.4321V26.0808C6.82251 31.2786 11.0361 35.492 16.2338 35.492H28.7821C33.9799 35.492 38.1933 31.2786 38.1933 26.0808V15.4321C38.1933 13.3344 37.1449 11.3753 35.3995 10.2117L34.8803 9.86556C34.4514 11.0876 33.2876 11.9639 31.9192 11.9639C30.1866 11.9639 28.7821 10.5594 28.7821 8.82684V4.12121C28.7821 2.96429 29.4189 1.90125 30.4388 1.35534C31.459 0.809423 32.6965 0.869247 33.6593 1.511L38.8797 4.99128C42.3707 7.31859 44.4675 11.2366 44.4675 15.4321V26.0808C44.4675 34.7435 37.4448 41.7662 28.7821 41.7662H25.645V57.4516H31.9192V52.3181C31.9192 48.8532 34.7281 46.0439 38.1933 46.0439H39.0485C40.3466 43.5048 42.9884 41.7662 46.036 41.7662C50.3674 41.7662 53.8788 45.2775 53.8788 49.6089C53.8788 53.9403 50.3674 57.4516 46.036 57.4516C42.6568 57.4516 39.7769 55.3146 38.6739 52.3181H38.1933V57.4516C38.1933 60.9168 35.3844 63.7258 31.9192 63.7258H25.645C22.1798 63.7258 19.3708 60.9168 19.3708 57.4516V41.7662H16.2338C7.57095 41.7662 0.54834 34.7435 0.54834 26.0808V15.4321C0.54834 11.2366 2.64517 7.31856 6.13611 4.99128L11.3565 1.511C12.3192 0.869247 13.5569 0.809423 14.5769 1.35534Z" fill="#011145"/>
<path d="M14.5769 1.35534C15.597 1.90125 16.2338 2.96429 16.2338 4.12121V8.82684C16.2338 10.5594 14.8292 11.9639 13.0967 11.9639C11.7282 11.9639 10.5643 11.0876 10.1356 9.86556L9.61639 10.2117C7.87092 11.3753 6.82251 13.3344 6.82251 15.4321V26.0808C6.82251 31.2786 11.0361 35.492 16.2338 35.492H28.7821C33.9799 35.492 38.1933 31.2786 38.1933 26.0808V15.4321C38.1933 13.3344 37.1449 11.3753 35.3995 10.2117L34.8803 9.86556C34.4514 11.0876 33.2876 11.9639 31.9192 11.9639C30.1866 11.9639 28.7821 10.5594 28.7821 8.82684V4.12121C28.7821 2.96429 29.4189 1.90125 30.4388 1.35534C31.459 0.809423 32.6965 0.869247 33.6593 1.511L38.8797 4.99128C42.3707 7.31859 44.4675 11.2366 44.4675 15.4321V26.0808C44.4675 34.7435 37.4448 41.7662 28.7821 41.7662H25.645V57.4516H31.9192V52.3181C31.9192 48.8532 34.7281 46.0439 38.1933 46.0439H39.0485C40.3466 43.5048 42.9884 41.7662 46.036 41.7662C50.3674 41.7662 53.8788 45.2775 53.8788 49.6089C53.8788 53.9403 50.3674 57.4516 46.036 57.4516C42.6568 57.4516 39.7769 55.3146 38.6739 52.3181H38.1933V57.4516C38.1933 60.9168 35.3844 63.7258 31.9192 63.7258H25.645C22.1798 63.7258 19.3708 60.9168 19.3708 57.4516V41.7662H16.2338C7.57095 41.7662 0.54834 34.7435 0.54834 26.0808V15.4321C0.54834 11.2366 2.64517 7.31856 6.13611 4.99128L11.3565 1.511C12.3192 0.869247 13.5569 0.809423 14.5769 1.35534Z" fill="#031C6E"/>
</svg>
