<svg width="64" height="64" viewBox="0 0 64 64" fill="none" xmlns="http://www.w3.org/2000/svg">
<path fill-rule="evenodd" clip-rule="evenodd" d="M12.8225 13.5325V10.3954C12.8225 5.1977 17.0361 0.984131 22.2338 0.984131H41.0563C46.2541 0.984131 50.4675 5.1977 50.4675 10.3954V13.5325H56.7417C60.2069 13.5325 63.0158 16.3415 63.0158 19.8066V57.4516C63.0158 60.9169 60.2069 63.7258 56.7417 63.7258H6.54834C3.08321 63.7258 0.27417 60.9169 0.27417 57.4516V19.8066C0.27417 16.3415 3.08321 13.5325 6.54834 13.5325H12.8225ZM19.0967 10.3954C19.0967 8.66283 20.5012 7.2583 22.2338 7.2583H41.0563C42.7889 7.2583 44.1933 8.66283 44.1933 10.3954V13.5325H19.0967V10.3954ZM34.7821 26.0808V35.4921H44.1933V41.7662H34.7821V51.1775H28.5079V41.7662H19.0967V35.4921H28.5079V26.0808H34.7821Z" fill="#001859"/>
<path fill-rule="evenodd" clip-rule="evenodd" d="M12.8225 13.5325V10.3954C12.8225 5.1977 17.0361 0.984131 22.2338 0.984131H41.0563C46.2541 0.984131 50.4675 5.1977 50.4675 10.3954V13.5325H56.7417C60.2069 13.5325 63.0158 16.3415 63.0158 19.8066V57.4516C63.0158 60.9169 60.2069 63.7258 56.7417 63.7258H6.54834C3.08321 63.7258 0.27417 60.9169 0.27417 57.4516V19.8066C0.27417 16.3415 3.08321 13.5325 6.54834 13.5325H12.8225ZM19.0967 10.3954C19.0967 8.66283 20.5012 7.2583 22.2338 7.2583H41.0563C42.7889 7.2583 44.1933 8.66283 44.1933 10.3954V13.5325H19.0967V10.3954ZM34.7821 26.0808V35.4921H44.1933V41.7662H34.7821V51.1775H28.5079V41.7662H19.0967V35.4921H28.5079V26.0808H34.7821Z" fill="#99B1D2"/>
<path fill-rule="evenodd" clip-rule="evenodd" d="M12.8225 13.5325V10.3954C12.8225 5.1977 17.0361 0.984131 22.2338 0.984131H41.0563C46.2541 0.984131 50.4675 5.1977 50.4675 10.3954V13.5325H56.7417C60.2069 13.5325 63.0158 16.3415 63.0158 19.8066V57.4516C63.0158 60.9169 60.2069 63.7258 56.7417 63.7258H6.54834C3.08321 63.7258 0.27417 60.9169 0.27417 57.4516V19.8066C0.27417 16.3415 3.08321 13.5325 6.54834 13.5325H12.8225ZM19.0967 10.3954C19.0967 8.66283 20.5012 7.2583 22.2338 7.2583H41.0563C42.7889 7.2583 44.1933 8.66283 44.1933 10.3954V13.5325H19.0967V10.3954ZM34.7821 26.0808V35.4921H44.1933V41.7662H34.7821V51.1775H28.5079V41.7662H19.0967V35.4921H28.5079V26.0808H34.7821Z" fill="#000B3F"/>
<path fill-rule="evenodd" clip-rule="evenodd" d="M12.8225 13.5325V10.3954C12.8225 5.1977 17.0361 0.984131 22.2338 0.984131H41.0563C46.2541 0.984131 50.4675 5.1977 50.4675 10.3954V13.5325H56.7417C60.2069 13.5325 63.0158 16.3415 63.0158 19.8066V57.4516C63.0158 60.9169 60.2069 63.7258 56.7417 63.7258H6.54834C3.08321 63.7258 0.27417 60.9169 0.27417 57.4516V19.8066C0.27417 16.3415 3.08321 13.5325 6.54834 13.5325H12.8225ZM19.0967 10.3954C19.0967 8.66283 20.5012 7.2583 22.2338 7.2583H41.0563C42.7889 7.2583 44.1933 8.66283 44.1933 10.3954V13.5325H19.0967V10.3954ZM34.7821 26.0808V35.4921H44.1933V41.7662H34.7821V51.1775H28.5079V41.7662H19.0967V35.4921H28.5079V26.0808H34.7821Z" fill="#011145"/>
<path fill-rule="evenodd" clip-rule="evenodd" d="M12.8225 13.5325V10.3954C12.8225 5.1977 17.0361 0.984131 22.2338 0.984131H41.0563C46.2541 0.984131 50.4675 5.1977 50.4675 10.3954V13.5325H56.7417C60.2069 13.5325 63.0158 16.3415 63.0158 19.8066V57.4516C63.0158 60.9169 60.2069 63.7258 56.7417 63.7258H6.54834C3.08321 63.7258 0.27417 60.9169 0.27417 57.4516V19.8066C0.27417 16.3415 3.08321 13.5325 6.54834 13.5325H12.8225ZM19.0967 10.3954C19.0967 8.66283 20.5012 7.2583 22.2338 7.2583H41.0563C42.7889 7.2583 44.1933 8.66283 44.1933 10.3954V13.5325H19.0967V10.3954ZM34.7821 26.0808V35.4921H44.1933V41.7662H34.7821V51.1775H28.5079V41.7662H19.0967V35.4921H28.5079V26.0808H34.7821Z" fill="#031C6E"/>
</svg>
