<svg width="60" height="70" viewBox="0 0 60 70" fill="none" xmlns="http://www.w3.org/2000/svg">
<path d="M43.3971 1.7739C42.1765 0.544383 40.1901 0.537205 38.9607 1.75787C37.7309 2.97854 37.724 4.96485 38.9447 6.19436L40.5926 7.85416L38.1651 10.2814L35.924 8.04004C34.6986 6.81494 32.7126 6.81494 31.4872 8.04004L12.0046 27.5228C10.7795 28.7479 10.7795 30.7344 12.0046 31.9594L20.8776 40.8323C22.1027 42.0573 24.089 42.0573 25.3141 40.8323L39.5492 26.5974C45.9445 29.1228 50.4675 35.3625 50.4675 42.6521C50.4675 52.181 42.7427 59.9061 33.2135 59.9061C28.117 59.9061 23.5331 57.696 20.3726 54.1775H26.9394C28.672 54.1775 30.0765 52.773 30.0765 51.0404C30.0765 49.3078 28.672 47.9033 26.9394 47.9033H3.41125C1.6787 47.9033 0.27417 49.3078 0.27417 51.0404C0.27417 52.773 1.6787 54.1775 3.41125 54.1775H12.6977C14.9571 58.191 18.3612 61.4762 22.4686 63.5887H6.54834C4.81579 63.5887 3.41125 64.9932 3.41125 66.7258C3.41125 68.4584 4.81579 69.8629 6.54834 69.8629H56.7417C58.4743 69.8629 59.8788 68.4584 59.8788 66.7258C59.8788 64.9932 58.4743 63.5887 56.7417 63.5887H43.959C51.5495 59.6852 56.7417 51.7751 56.7417 42.6521C56.7417 33.6512 51.6894 25.8355 44.268 21.8783L44.7969 21.3496C46.0219 20.1245 46.0219 18.1381 44.7969 16.9131L42.6016 14.7179L45.0131 12.3067L46.645 13.9505C47.8656 15.18 49.8517 15.1871 51.0814 13.9665C52.3109 12.7458 52.3181 10.7595 51.0974 9.52999L43.3971 1.7739Z" fill="#F6F9FB"/>
<path d="M43.3971 1.7739C42.1765 0.544383 40.1901 0.537205 38.9607 1.75787C37.7309 2.97854 37.724 4.96485 38.9447 6.19436L40.5926 7.85416L38.1651 10.2814L35.924 8.04004C34.6986 6.81494 32.7126 6.81494 31.4872 8.04004L12.0046 27.5228C10.7795 28.7479 10.7795 30.7344 12.0046 31.9594L20.8776 40.8323C22.1027 42.0573 24.089 42.0573 25.3141 40.8323L39.5492 26.5974C45.9445 29.1228 50.4675 35.3625 50.4675 42.6521C50.4675 52.181 42.7427 59.9061 33.2135 59.9061C28.117 59.9061 23.5331 57.696 20.3726 54.1775H26.9394C28.672 54.1775 30.0765 52.773 30.0765 51.0404C30.0765 49.3078 28.672 47.9033 26.9394 47.9033H3.41125C1.6787 47.9033 0.27417 49.3078 0.27417 51.0404C0.27417 52.773 1.6787 54.1775 3.41125 54.1775H12.6977C14.9571 58.191 18.3612 61.4762 22.4686 63.5887H6.54834C4.81579 63.5887 3.41125 64.9932 3.41125 66.7258C3.41125 68.4584 4.81579 69.8629 6.54834 69.8629H56.7417C58.4743 69.8629 59.8788 68.4584 59.8788 66.7258C59.8788 64.9932 58.4743 63.5887 56.7417 63.5887H43.959C51.5495 59.6852 56.7417 51.7751 56.7417 42.6521C56.7417 33.6512 51.6894 25.8355 44.268 21.8783L44.7969 21.3496C46.0219 20.1245 46.0219 18.1381 44.7969 16.9131L42.6016 14.7179L45.0131 12.3067L46.645 13.9505C47.8656 15.18 49.8517 15.1871 51.0814 13.9665C52.3109 12.7458 52.3181 10.7595 51.0974 9.52999L43.3971 1.7739Z" fill="#F0F5F8"/>
<path d="M43.3971 1.7739C42.1765 0.544383 40.1901 0.537205 38.9607 1.75787C37.7309 2.97854 37.724 4.96485 38.9447 6.19436L40.5926 7.85416L38.1651 10.2814L35.924 8.04004C34.6986 6.81494 32.7126 6.81494 31.4872 8.04004L12.0046 27.5228C10.7795 28.7479 10.7795 30.7344 12.0046 31.9594L20.8776 40.8323C22.1027 42.0573 24.089 42.0573 25.3141 40.8323L39.5492 26.5974C45.9445 29.1228 50.4675 35.3625 50.4675 42.6521C50.4675 52.181 42.7427 59.9061 33.2135 59.9061C28.117 59.9061 23.5331 57.696 20.3726 54.1775H26.9394C28.672 54.1775 30.0765 52.773 30.0765 51.0404C30.0765 49.3078 28.672 47.9033 26.9394 47.9033H3.41125C1.6787 47.9033 0.27417 49.3078 0.27417 51.0404C0.27417 52.773 1.6787 54.1775 3.41125 54.1775H12.6977C14.9571 58.191 18.3612 61.4762 22.4686 63.5887H6.54834C4.81579 63.5887 3.41125 64.9932 3.41125 66.7258C3.41125 68.4584 4.81579 69.8629 6.54834 69.8629H56.7417C58.4743 69.8629 59.8788 68.4584 59.8788 66.7258C59.8788 64.9932 58.4743 63.5887 56.7417 63.5887H43.959C51.5495 59.6852 56.7417 51.7751 56.7417 42.6521C56.7417 33.6512 51.6894 25.8355 44.268 21.8783L44.7969 21.3496C46.0219 20.1245 46.0219 18.1381 44.7969 16.9131L42.6016 14.7179L45.0131 12.3067L46.645 13.9505C47.8656 15.18 49.8517 15.1871 51.0814 13.9665C52.3109 12.7458 52.3181 10.7595 51.0974 9.52999L43.3971 1.7739Z" fill="#B6C5CC"/>
<path d="M43.3971 1.7739C42.1765 0.544383 40.1901 0.537205 38.9607 1.75787C37.7309 2.97854 37.724 4.96485 38.9447 6.19436L40.5926 7.85416L38.1651 10.2814L35.924 8.04004C34.6986 6.81494 32.7126 6.81494 31.4872 8.04004L12.0046 27.5228C10.7795 28.7479 10.7795 30.7344 12.0046 31.9594L20.8776 40.8323C22.1027 42.0573 24.089 42.0573 25.3141 40.8323L39.5492 26.5974C45.9445 29.1228 50.4675 35.3625 50.4675 42.6521C50.4675 52.181 42.7427 59.9061 33.2135 59.9061C28.117 59.9061 23.5331 57.696 20.3726 54.1775H26.9394C28.672 54.1775 30.0765 52.773 30.0765 51.0404C30.0765 49.3078 28.672 47.9033 26.9394 47.9033H3.41125C1.6787 47.9033 0.27417 49.3078 0.27417 51.0404C0.27417 52.773 1.6787 54.1775 3.41125 54.1775H12.6977C14.9571 58.191 18.3612 61.4762 22.4686 63.5887H6.54834C4.81579 63.5887 3.41125 64.9932 3.41125 66.7258C3.41125 68.4584 4.81579 69.8629 6.54834 69.8629H56.7417C58.4743 69.8629 59.8788 68.4584 59.8788 66.7258C59.8788 64.9932 58.4743 63.5887 56.7417 63.5887H43.959C51.5495 59.6852 56.7417 51.7751 56.7417 42.6521C56.7417 33.6512 51.6894 25.8355 44.268 21.8783L44.7969 21.3496C46.0219 20.1245 46.0219 18.1381 44.7969 16.9131L42.6016 14.7179L45.0131 12.3067L46.645 13.9505C47.8656 15.18 49.8517 15.1871 51.0814 13.9665C52.3109 12.7458 52.3181 10.7595 51.0974 9.52999L43.3971 1.7739Z" fill="#031C6E"/>
</svg>
