<svg width="93" height="93" viewBox="0 0 93 93" fill="none" xmlns="http://www.w3.org/2000/svg">
<path d="M42.8107 7.6375C44.144 4.12083 49.1898 4.12083 50.5273 7.6375L59.1524 31.5292C59.4532 32.3074 59.9831 32.9762 60.6719 33.4471C61.3608 33.918 62.1763 34.1689 63.0107 34.1667H84.2065C88.1232 34.1667 89.8315 39.0417 86.7524 41.4292L71.669 55C70.9934 55.5194 70.4996 56.2395 70.2586 57.0569C70.0175 57.8743 70.0416 58.7471 70.3273 59.55L75.8357 82.8958C77.1773 86.6458 72.8357 89.8667 69.5524 87.5583L49.0648 74.5583C48.3632 74.0652 47.5266 73.8006 46.669 73.8006C45.8115 73.8006 44.9748 74.0652 44.2732 74.5583L23.7857 87.5583C20.5065 89.8667 16.1607 86.6417 17.5024 82.8958L23.0107 59.55C23.2964 58.7471 23.3205 57.8743 23.0795 57.0569C22.8384 56.2395 22.3447 55.5194 21.669 55L6.58569 41.4292C3.50235 39.0417 5.21902 34.1667 9.12735 34.1667H30.3232C31.1577 34.1694 31.9735 33.9188 32.6624 33.4478C33.3514 32.9768 33.8811 32.3078 34.1815 31.5292L42.8065 7.6375H42.8107Z" stroke="#031C6E" stroke-width="8.33333" stroke-linecap="round" stroke-linejoin="round"/>
</svg>
