<svg width="89" height="89" viewBox="0 0 89 89" fill="none" xmlns="http://www.w3.org/2000/svg">
<path d="M55.5273 0L53.3008 2.2168L59.6484 8.57227L61.875 6.34766L55.5273 0ZM63.0078 0.535156C62.3242 0.527344 61.6797 0.554687 61.1328 0.611328C61.1328 0.611328 61.1133 0.613281 61.1133 0.615234L73.2031 12.6992L79.2187 6.67969C75.3516 3.35351 70.7812 1.60156 66.8164 0.904297C65.7227 0.710937 64.668 0.59961 63.7109 0.554688C63.4766 0.544922 63.2422 0.537109 63.0078 0.535156ZM53.0273 6.91992L6.92383 53.043L15.4687 61.5781L16.4258 60.6211L17.6758 59.3906L29.0039 70.7187L26.7969 72.9258L35.3516 81.4805L81.4844 35.3672L53.0273 6.91992ZM64.375 8.83984L62.1484 11.0645L77.3242 26.2461L79.5508 24.0195L64.375 8.83984ZM81.7187 9.17187L75.7031 15.1914L87.793 27.3008V27.2617C87.9492 25.7773 87.8906 23.7656 87.5 21.5781C86.7969 17.6133 85.0391 13.0371 81.7187 9.17187ZM82.0508 26.5195L79.8242 28.7461L86.1719 35.0937L88.3984 32.8672L82.0508 26.5195ZM37.5781 28.7266L44.1992 35.3477L50.8203 28.7266L59.668 37.5742L53.0469 44.1953L59.668 50.8164L50.8203 59.6641L44.1992 53.043L37.5781 59.6641L28.7305 50.8164L35.3516 44.1953L28.7305 37.5742L37.5781 28.7266ZM2.19531 53.2969L0 55.5234L10.7695 66.2852L12.9785 64.0781L2.19531 53.2969ZM0.617187 61.1094C0.617187 61.1289 0.615234 61.1289 0.615234 61.1289C0.46289 62.6133 0.521484 64.625 0.908203 66.8125C1.68555 71.2266 3.76953 76.4023 7.87695 80.5039C11.9844 84.625 17.168 86.7148 21.582 87.4961C23.7695 87.8867 25.7813 87.9453 27.2656 87.7891H27.3047L19.6094 80.0937L17.6758 82.0273L6.35547 70.7187L8.28906 68.7852L0.617187 61.1094ZM17.6758 64.3516L11.3281 70.7187L17.6758 77.0664L24.043 70.7187L17.6758 64.3516ZM24.3164 75.4062L22.0898 77.6133L32.8711 88.3945L35.0977 86.1875L24.3164 75.4062Z" fill="#031C6E"/>
</svg>
