<svg width="45" height="44" viewBox="0 0 45 44" fill="none" xmlns="http://www.w3.org/2000/svg">
<path d="M6.27402 17.5413C5.84567 17.6515 5.39661 17.7101 4.93385 17.7101C4.66669 17.7101 4.40409 17.6839 4.1482 17.6339C4.05156 17.6151 3.95592 17.5927 3.86132 17.5672C1.59875 16.9563 -0.0514624 14.4752 0.485561 11.8637C0.567349 11.4661 0.734982 11.0928 0.916535 10.7297L4.82063 2.9215C5.54732 1.46813 7.0328 0.550049 8.65772 0.550049H33.3849C35.01 0.550049 36.4954 1.46813 37.2221 2.92152L41.3989 11.2751C41.5248 11.6529 41.6029 12.0307 41.6378 12.4034C37.0404 10.2985 31.4255 11.1386 27.6404 14.9237L25.0271 17.537C24.6779 17.446 24.3429 17.3205 24.0252 17.1648C23.1803 16.7504 22.4602 16.12 21.9373 15.3458C21.359 14.4899 21.0213 13.4582 21.0213 12.3476C21.0213 13.1114 20.8618 13.838 20.5739 14.4957C19.8851 16.0691 18.463 17.2485 16.7397 17.6011C16.3905 17.6725 16.0291 17.7101 15.6589 17.7101C15.1441 17.7101 14.6462 17.6376 14.1749 17.502C13.8715 17.4149 13.579 17.3017 13.3002 17.1648C11.8325 16.445 10.742 15.0739 10.4053 13.4283C10.3339 13.0792 10.2964 12.7178 10.2964 12.3476C10.2964 12.9023 10.2121 13.4374 10.0557 13.9407C9.5077 15.7045 8.07362 17.0782 6.27402 17.5413Z" fill="#001859"/>
<path d="M6.27402 17.5413C5.84567 17.6515 5.39661 17.7101 4.93385 17.7101C4.66669 17.7101 4.40409 17.6839 4.1482 17.6339C4.05156 17.6151 3.95592 17.5927 3.86132 17.5672C1.59875 16.9563 -0.0514624 14.4752 0.485561 11.8637C0.567349 11.4661 0.734982 11.0928 0.916535 10.7297L4.82063 2.9215C5.54732 1.46813 7.0328 0.550049 8.65772 0.550049H33.3849C35.01 0.550049 36.4954 1.46813 37.2221 2.92152L41.3989 11.2751C41.5248 11.6529 41.6029 12.0307 41.6378 12.4034C37.0404 10.2985 31.4255 11.1386 27.6404 14.9237L25.0271 17.537C24.6779 17.446 24.3429 17.3205 24.0252 17.1648C23.1803 16.7504 22.4602 16.12 21.9373 15.3458C21.359 14.4899 21.0213 13.4582 21.0213 12.3476C21.0213 13.1114 20.8618 13.838 20.5739 14.4957C19.8851 16.0691 18.463 17.2485 16.7397 17.6011C16.3905 17.6725 16.0291 17.7101 15.6589 17.7101C15.1441 17.7101 14.6462 17.6376 14.1749 17.502C13.8715 17.4149 13.579 17.3017 13.3002 17.1648C11.8325 16.445 10.742 15.0739 10.4053 13.4283C10.3339 13.0792 10.2964 12.7178 10.2964 12.3476C10.2964 12.9023 10.2121 13.4374 10.0557 13.9407C9.5077 15.7045 8.07362 17.0782 6.27402 17.5413Z" fill="#99B1D2"/>
<path d="M6.27402 17.5413C5.84567 17.6515 5.39661 17.7101 4.93385 17.7101C4.66669 17.7101 4.40409 17.6839 4.1482 17.6339C4.05156 17.6151 3.95592 17.5927 3.86132 17.5672C1.59875 16.9563 -0.0514624 14.4752 0.485561 11.8637C0.567349 11.4661 0.734982 11.0928 0.916535 10.7297L4.82063 2.9215C5.54732 1.46813 7.0328 0.550049 8.65772 0.550049H33.3849C35.01 0.550049 36.4954 1.46813 37.2221 2.92152L41.3989 11.2751C41.5248 11.6529 41.6029 12.0307 41.6378 12.4034C37.0404 10.2985 31.4255 11.1386 27.6404 14.9237L25.0271 17.537C24.6779 17.446 24.3429 17.3205 24.0252 17.1648C23.1803 16.7504 22.4602 16.12 21.9373 15.3458C21.359 14.4899 21.0213 13.4582 21.0213 12.3476C21.0213 13.1114 20.8618 13.838 20.5739 14.4957C19.8851 16.0691 18.463 17.2485 16.7397 17.6011C16.3905 17.6725 16.0291 17.7101 15.6589 17.7101C15.1441 17.7101 14.6462 17.6376 14.1749 17.502C13.8715 17.4149 13.579 17.3017 13.3002 17.1648C11.8325 16.445 10.742 15.0739 10.4053 13.4283C10.3339 13.0792 10.2964 12.7178 10.2964 12.3476C10.2964 12.9023 10.2121 13.4374 10.0557 13.9407C9.5077 15.7045 8.07362 17.0782 6.27402 17.5413Z" fill="#000B3F"/>
<path d="M6.27402 17.5413C5.84567 17.6515 5.39661 17.7101 4.93385 17.7101C4.66669 17.7101 4.40409 17.6839 4.1482 17.6339C4.05156 17.6151 3.95592 17.5927 3.86132 17.5672C1.59875 16.9563 -0.0514624 14.4752 0.485561 11.8637C0.567349 11.4661 0.734982 11.0928 0.916535 10.7297L4.82063 2.9215C5.54732 1.46813 7.0328 0.550049 8.65772 0.550049H33.3849C35.01 0.550049 36.4954 1.46813 37.2221 2.92152L41.3989 11.2751C41.5248 11.6529 41.6029 12.0307 41.6378 12.4034C37.0404 10.2985 31.4255 11.1386 27.6404 14.9237L25.0271 17.537C24.6779 17.446 24.3429 17.3205 24.0252 17.1648C23.1803 16.7504 22.4602 16.12 21.9373 15.3458C21.359 14.4899 21.0213 13.4582 21.0213 12.3476C21.0213 13.1114 20.8618 13.838 20.5739 14.4957C19.8851 16.0691 18.463 17.2485 16.7397 17.6011C16.3905 17.6725 16.0291 17.7101 15.6589 17.7101C15.1441 17.7101 14.6462 17.6376 14.1749 17.502C13.8715 17.4149 13.579 17.3017 13.3002 17.1648C11.8325 16.445 10.742 15.0739 10.4053 13.4283C10.3339 13.0792 10.2964 12.7178 10.2964 12.3476C10.2964 12.9023 10.2121 13.4374 10.0557 13.9407C9.5077 15.7045 8.07362 17.0782 6.27402 17.5413Z" fill="#011145"/>
<path d="M6.27402 17.5413C5.84567 17.6515 5.39661 17.7101 4.93385 17.7101C4.66669 17.7101 4.40409 17.6839 4.1482 17.6339C4.05156 17.6151 3.95592 17.5927 3.86132 17.5672C1.59875 16.9563 -0.0514624 14.4752 0.485561 11.8637C0.567349 11.4661 0.734982 11.0928 0.916535 10.7297L4.82063 2.9215C5.54732 1.46813 7.0328 0.550049 8.65772 0.550049H33.3849C35.01 0.550049 36.4954 1.46813 37.2221 2.92152L41.3989 11.2751C41.5248 11.6529 41.6029 12.0307 41.6378 12.4034C37.0404 10.2985 31.4255 11.1386 27.6404 14.9237L25.0271 17.537C24.6779 17.446 24.3429 17.3205 24.0252 17.1648C23.1803 16.7504 22.4602 16.12 21.9373 15.3458C21.359 14.4899 21.0213 13.4582 21.0213 12.3476C21.0213 13.1114 20.8618 13.838 20.5739 14.4957C19.8851 16.0691 18.463 17.2485 16.7397 17.6011C16.3905 17.6725 16.0291 17.7101 15.6589 17.7101C15.1441 17.7101 14.6462 17.6376 14.1749 17.502C13.8715 17.4149 13.579 17.3017 13.3002 17.1648C11.8325 16.445 10.742 15.0739 10.4053 13.4283C10.3339 13.0792 10.2964 12.7178 10.2964 12.3476C10.2964 12.9023 10.2121 13.4374 10.0557 13.9407C9.5077 15.7045 8.07362 17.0782 6.27402 17.5413Z" fill="#031C6E"/>
<path d="M21.7481 20.816C21.4988 20.6793 21.2564 20.532 21.0214 20.3745C19.4875 21.4013 17.6432 22 15.6588 22C13.6745 22 11.8301 21.4013 10.2963 20.3745C8.76253 21.4013 6.91811 22 4.93381 22C4.56926 22 4.21146 21.9775 3.86133 21.9337V34.87C3.86133 37.2394 5.78203 39.16 8.15133 39.16H13.0573C11.6472 34.8419 12.6581 29.9058 16.09 26.474L21.7481 20.816Z" fill="#001859"/>
<path d="M21.7481 20.816C21.4988 20.6793 21.2564 20.532 21.0214 20.3745C19.4875 21.4013 17.6432 22 15.6588 22C13.6745 22 11.8301 21.4013 10.2963 20.3745C8.76253 21.4013 6.91811 22 4.93381 22C4.56926 22 4.21146 21.9775 3.86133 21.9337V34.87C3.86133 37.2394 5.78203 39.16 8.15133 39.16H13.0573C11.6472 34.8419 12.6581 29.9058 16.09 26.474L21.7481 20.816Z" fill="#99B1D2"/>
<path d="M21.7481 20.816C21.4988 20.6793 21.2564 20.532 21.0214 20.3745C19.4875 21.4013 17.6432 22 15.6588 22C13.6745 22 11.8301 21.4013 10.2963 20.3745C8.76253 21.4013 6.91811 22 4.93381 22C4.56926 22 4.21146 21.9775 3.86133 21.9337V34.87C3.86133 37.2394 5.78203 39.16 8.15133 39.16H13.0573C11.6472 34.8419 12.6581 29.9058 16.09 26.474L21.7481 20.816Z" fill="#000B3F"/>
<path d="M21.7481 20.816C21.4988 20.6793 21.2564 20.532 21.0214 20.3745C19.4875 21.4013 17.6432 22 15.6588 22C13.6745 22 11.8301 21.4013 10.2963 20.3745C8.76253 21.4013 6.91811 22 4.93381 22C4.56926 22 4.21146 21.9775 3.86133 21.9337V34.87C3.86133 37.2394 5.78203 39.16 8.15133 39.16H13.0573C11.6472 34.8419 12.6581 29.9058 16.09 26.474L21.7481 20.816Z" fill="#011145"/>
<path d="M21.7481 20.816C21.4988 20.6793 21.2564 20.532 21.0214 20.3745C19.4875 21.4013 17.6432 22 15.6588 22C13.6745 22 11.8301 21.4013 10.2963 20.3745C8.76253 21.4013 6.91811 22 4.93381 22C4.56926 22 4.21146 21.9775 3.86133 21.9337V34.87C3.86133 37.2394 5.78203 39.16 8.15133 39.16H13.0573C11.6472 34.8419 12.6581 29.9058 16.09 26.474L21.7481 20.816Z" fill="#031C6E"/>
<path d="M42.2242 17.9572C39.0346 14.7677 33.8634 14.7677 30.6738 17.9572L26.4153 22.2157L37.9657 33.7661L42.2242 29.5076C45.4136 26.318 45.4136 21.1468 42.2242 17.9572Z" fill="#001859"/>
<path d="M42.2242 17.9572C39.0346 14.7677 33.8634 14.7677 30.6738 17.9572L26.4153 22.2157L37.9657 33.7661L42.2242 29.5076C45.4136 26.318 45.4136 21.1468 42.2242 17.9572Z" fill="#99B1D2"/>
<path d="M42.2242 17.9572C39.0346 14.7677 33.8634 14.7677 30.6738 17.9572L26.4153 22.2157L37.9657 33.7661L42.2242 29.5076C45.4136 26.318 45.4136 21.1468 42.2242 17.9572Z" fill="#000B3F"/>
<path d="M42.2242 17.9572C39.0346 14.7677 33.8634 14.7677 30.6738 17.9572L26.4153 22.2157L37.9657 33.7661L42.2242 29.5076C45.4136 26.318 45.4136 21.1468 42.2242 17.9572Z" fill="#011145"/>
<path d="M42.2242 17.9572C39.0346 14.7677 33.8634 14.7677 30.6738 17.9572L26.4153 22.2157L37.9657 33.7661L42.2242 29.5076C45.4136 26.318 45.4136 21.1468 42.2242 17.9572Z" fill="#031C6E"/>
<path d="M34.9325 36.7996L23.382 25.2491L19.1236 29.5076C15.9341 32.6972 15.9341 37.8684 19.1236 41.058C22.3132 44.2474 27.4844 44.2474 30.674 41.058L34.9325 36.7996Z" fill="#001859"/>
<path d="M34.9325 36.7996L23.382 25.2491L19.1236 29.5076C15.9341 32.6972 15.9341 37.8684 19.1236 41.058C22.3132 44.2474 27.4844 44.2474 30.674 41.058L34.9325 36.7996Z" fill="#99B1D2"/>
<path d="M34.9325 36.7996L23.382 25.2491L19.1236 29.5076C15.9341 32.6972 15.9341 37.8684 19.1236 41.058C22.3132 44.2474 27.4844 44.2474 30.674 41.058L34.9325 36.7996Z" fill="#000B3F"/>
<path d="M34.9325 36.7996L23.382 25.2491L19.1236 29.5076C15.9341 32.6972 15.9341 37.8684 19.1236 41.058C22.3132 44.2474 27.4844 44.2474 30.674 41.058L34.9325 36.7996Z" fill="#011145"/>
<path d="M34.9325 36.7996L23.382 25.2491L19.1236 29.5076C15.9341 32.6972 15.9341 37.8684 19.1236 41.058C22.3132 44.2474 27.4844 44.2474 30.674 41.058L34.9325 36.7996Z" fill="#031C6E"/>
</svg>
