<svg width="51" height="68" viewBox="0 0 51 68" fill="none" xmlns="http://www.w3.org/2000/svg">
<path fill-rule="evenodd" clip-rule="evenodd" d="M32.7979 2.70565H31.8103C27.8654 -0.267636 22.368 -0.32656 18.3397 2.69473L18.3251 2.70565H17.8023C13.4709 2.70565 9.95958 6.21696 9.95958 10.5484L6.8225 10.5484C3.35737 10.5484 0.548332 13.3574 0.548332 16.8226V60.7417C0.548332 64.2069 3.35737 67.0159 6.8225 67.0159H44.4675C47.9327 67.0159 50.7417 64.2069 50.7417 60.7417V16.8226C50.7417 13.3574 47.9327 10.5484 44.4675 10.5484H41.3028C40.9518 6.15858 37.2782 2.70565 32.7979 2.70565ZM22.1042 7.71407C24.0222 6.27568 26.6959 6.42244 28.4448 8.06203C29.0738 8.65165 29.9036 8.97982 30.7657 8.97982H32.7979C34.0452 8.97982 35.0562 9.9909 35.0562 11.2381V13.6854C35.0562 15.418 33.6518 16.8225 31.9192 16.8225H19.3708C17.6383 16.8225 16.2337 15.418 16.2337 13.6854V10.5484C16.2337 9.68209 16.936 8.97982 17.8023 8.97982H19.2732C20.0155 8.97982 20.7373 8.73911 21.3312 8.29383L22.1042 7.71407ZM22.1851 29.3709C23.5068 29.3819 24.68 30.2198 25.1186 31.4668L29.1212 42.8431L30.0981 40.6453C30.6016 39.5121 31.725 38.7821 32.9648 38.7821H41.3304C43.063 38.7821 44.4675 40.1866 44.4675 41.9192C44.4675 43.6518 43.063 45.0563 41.3304 45.0563H35.0035L31.6487 52.6044C31.1267 53.779 29.9412 54.5165 28.6569 54.465C27.3726 54.4136 26.2495 53.5842 25.8229 52.3717L22.0838 41.7448L21.6154 43.0087C21.1596 44.2394 19.986 45.0563 18.6737 45.0563H9.95958C8.22703 45.0563 6.8225 43.6518 6.8225 41.9192C6.8225 40.1866 8.22703 38.7821 9.95958 38.7821H16.4903L19.2176 31.4185C19.6767 30.179 20.8635 29.3602 22.1851 29.3709Z" fill="#001859"/>
<path fill-rule="evenodd" clip-rule="evenodd" d="M32.7979 2.70565H31.8103C27.8654 -0.267636 22.368 -0.32656 18.3397 2.69473L18.3251 2.70565H17.8023C13.4709 2.70565 9.95958 6.21696 9.95958 10.5484L6.8225 10.5484C3.35737 10.5484 0.548332 13.3574 0.548332 16.8226V60.7417C0.548332 64.2069 3.35737 67.0159 6.8225 67.0159H44.4675C47.9327 67.0159 50.7417 64.2069 50.7417 60.7417V16.8226C50.7417 13.3574 47.9327 10.5484 44.4675 10.5484H41.3028C40.9518 6.15858 37.2782 2.70565 32.7979 2.70565ZM22.1042 7.71407C24.0222 6.27568 26.6959 6.42244 28.4448 8.06203C29.0738 8.65165 29.9036 8.97982 30.7657 8.97982H32.7979C34.0452 8.97982 35.0562 9.9909 35.0562 11.2381V13.6854C35.0562 15.418 33.6518 16.8225 31.9192 16.8225H19.3708C17.6383 16.8225 16.2337 15.418 16.2337 13.6854V10.5484C16.2337 9.68209 16.936 8.97982 17.8023 8.97982H19.2732C20.0155 8.97982 20.7373 8.73911 21.3312 8.29383L22.1042 7.71407ZM22.1851 29.3709C23.5068 29.3819 24.68 30.2198 25.1186 31.4668L29.1212 42.8431L30.0981 40.6453C30.6016 39.5121 31.725 38.7821 32.9648 38.7821H41.3304C43.063 38.7821 44.4675 40.1866 44.4675 41.9192C44.4675 43.6518 43.063 45.0563 41.3304 45.0563H35.0035L31.6487 52.6044C31.1267 53.779 29.9412 54.5165 28.6569 54.465C27.3726 54.4136 26.2495 53.5842 25.8229 52.3717L22.0838 41.7448L21.6154 43.0087C21.1596 44.2394 19.986 45.0563 18.6737 45.0563H9.95958C8.22703 45.0563 6.8225 43.6518 6.8225 41.9192C6.8225 40.1866 8.22703 38.7821 9.95958 38.7821H16.4903L19.2176 31.4185C19.6767 30.179 20.8635 29.3602 22.1851 29.3709Z" fill="#99B1D2"/>
<path fill-rule="evenodd" clip-rule="evenodd" d="M32.7979 2.70565H31.8103C27.8654 -0.267636 22.368 -0.32656 18.3397 2.69473L18.3251 2.70565H17.8023C13.4709 2.70565 9.95958 6.21696 9.95958 10.5484L6.8225 10.5484C3.35737 10.5484 0.548332 13.3574 0.548332 16.8226V60.7417C0.548332 64.2069 3.35737 67.0159 6.8225 67.0159H44.4675C47.9327 67.0159 50.7417 64.2069 50.7417 60.7417V16.8226C50.7417 13.3574 47.9327 10.5484 44.4675 10.5484H41.3028C40.9518 6.15858 37.2782 2.70565 32.7979 2.70565ZM22.1042 7.71407C24.0222 6.27568 26.6959 6.42244 28.4448 8.06203C29.0738 8.65165 29.9036 8.97982 30.7657 8.97982H32.7979C34.0452 8.97982 35.0562 9.9909 35.0562 11.2381V13.6854C35.0562 15.418 33.6518 16.8225 31.9192 16.8225H19.3708C17.6383 16.8225 16.2337 15.418 16.2337 13.6854V10.5484C16.2337 9.68209 16.936 8.97982 17.8023 8.97982H19.2732C20.0155 8.97982 20.7373 8.73911 21.3312 8.29383L22.1042 7.71407ZM22.1851 29.3709C23.5068 29.3819 24.68 30.2198 25.1186 31.4668L29.1212 42.8431L30.0981 40.6453C30.6016 39.5121 31.725 38.7821 32.9648 38.7821H41.3304C43.063 38.7821 44.4675 40.1866 44.4675 41.9192C44.4675 43.6518 43.063 45.0563 41.3304 45.0563H35.0035L31.6487 52.6044C31.1267 53.779 29.9412 54.5165 28.6569 54.465C27.3726 54.4136 26.2495 53.5842 25.8229 52.3717L22.0838 41.7448L21.6154 43.0087C21.1596 44.2394 19.986 45.0563 18.6737 45.0563H9.95958C8.22703 45.0563 6.8225 43.6518 6.8225 41.9192C6.8225 40.1866 8.22703 38.7821 9.95958 38.7821H16.4903L19.2176 31.4185C19.6767 30.179 20.8635 29.3602 22.1851 29.3709Z" fill="#000B3F"/>
<path fill-rule="evenodd" clip-rule="evenodd" d="M32.7979 2.70565H31.8103C27.8654 -0.267636 22.368 -0.32656 18.3397 2.69473L18.3251 2.70565H17.8023C13.4709 2.70565 9.95958 6.21696 9.95958 10.5484L6.8225 10.5484C3.35737 10.5484 0.548332 13.3574 0.548332 16.8226V60.7417C0.548332 64.2069 3.35737 67.0159 6.8225 67.0159H44.4675C47.9327 67.0159 50.7417 64.2069 50.7417 60.7417V16.8226C50.7417 13.3574 47.9327 10.5484 44.4675 10.5484H41.3028C40.9518 6.15858 37.2782 2.70565 32.7979 2.70565ZM22.1042 7.71407C24.0222 6.27568 26.6959 6.42244 28.4448 8.06203C29.0738 8.65165 29.9036 8.97982 30.7657 8.97982H32.7979C34.0452 8.97982 35.0562 9.9909 35.0562 11.2381V13.6854C35.0562 15.418 33.6518 16.8225 31.9192 16.8225H19.3708C17.6383 16.8225 16.2337 15.418 16.2337 13.6854V10.5484C16.2337 9.68209 16.936 8.97982 17.8023 8.97982H19.2732C20.0155 8.97982 20.7373 8.73911 21.3312 8.29383L22.1042 7.71407ZM22.1851 29.3709C23.5068 29.3819 24.68 30.2198 25.1186 31.4668L29.1212 42.8431L30.0981 40.6453C30.6016 39.5121 31.725 38.7821 32.9648 38.7821H41.3304C43.063 38.7821 44.4675 40.1866 44.4675 41.9192C44.4675 43.6518 43.063 45.0563 41.3304 45.0563H35.0035L31.6487 52.6044C31.1267 53.779 29.9412 54.5165 28.6569 54.465C27.3726 54.4136 26.2495 53.5842 25.8229 52.3717L22.0838 41.7448L21.6154 43.0087C21.1596 44.2394 19.986 45.0563 18.6737 45.0563H9.95958C8.22703 45.0563 6.8225 43.6518 6.8225 41.9192C6.8225 40.1866 8.22703 38.7821 9.95958 38.7821H16.4903L19.2176 31.4185C19.6767 30.179 20.8635 29.3602 22.1851 29.3709Z" fill="#011145"/>
<path fill-rule="evenodd" clip-rule="evenodd" d="M32.7979 2.70565H31.8103C27.8654 -0.267636 22.368 -0.32656 18.3397 2.69473L18.3251 2.70565H17.8023C13.4709 2.70565 9.95958 6.21696 9.95958 10.5484L6.8225 10.5484C3.35737 10.5484 0.548332 13.3574 0.548332 16.8226V60.7417C0.548332 64.2069 3.35737 67.0159 6.8225 67.0159H44.4675C47.9327 67.0159 50.7417 64.2069 50.7417 60.7417V16.8226C50.7417 13.3574 47.9327 10.5484 44.4675 10.5484H41.3028C40.9518 6.15858 37.2782 2.70565 32.7979 2.70565ZM22.1042 7.71407C24.0222 6.27568 26.6959 6.42244 28.4448 8.06203C29.0738 8.65165 29.9036 8.97982 30.7657 8.97982H32.7979C34.0452 8.97982 35.0562 9.9909 35.0562 11.2381V13.6854C35.0562 15.418 33.6518 16.8225 31.9192 16.8225H19.3708C17.6383 16.8225 16.2337 15.418 16.2337 13.6854V10.5484C16.2337 9.68209 16.936 8.97982 17.8023 8.97982H19.2732C20.0155 8.97982 20.7373 8.73911 21.3312 8.29383L22.1042 7.71407ZM22.1851 29.3709C23.5068 29.3819 24.68 30.2198 25.1186 31.4668L29.1212 42.8431L30.0981 40.6453C30.6016 39.5121 31.725 38.7821 32.9648 38.7821H41.3304C43.063 38.7821 44.4675 40.1866 44.4675 41.9192C44.4675 43.6518 43.063 45.0563 41.3304 45.0563H35.0035L31.6487 52.6044C31.1267 53.779 29.9412 54.5165 28.6569 54.465C27.3726 54.4136 26.2495 53.5842 25.8229 52.3717L22.0838 41.7448L21.6154 43.0087C21.1596 44.2394 19.986 45.0563 18.6737 45.0563H9.95958C8.22703 45.0563 6.8225 43.6518 6.8225 41.9192C6.8225 40.1866 8.22703 38.7821 9.95958 38.7821H16.4903L19.2176 31.4185C19.6767 30.179 20.8635 29.3602 22.1851 29.3709Z" fill="#031C6E"/>
</svg>
